[Header]
FileType HTR
DataType HTRS
FileVersion 1
NumSegments 64
NumFrames 3
DataFrameRate 24
EulerRotationOrder ZYX
CalibrationUnits mm
RotationUnits Degrees
GlobalAxisofGravity Y
BoneLengthAxis Y
ScaleFactor 1.0
[SegmentNames&Hierarchy]
Hips	GLOBAL
Spine	Hips
Spine1	Spine
Spine2	Spine1
Neck	Spine2
Head	Neck
LeftEye	Head
RightEye	Head
LeftShoulder	Spine2
LeftArm	LeftShoulder
LeftForeArm	LeftArm
LeftHand	LeftForeArm
LeftHandThumb1	LeftHand
LeftHandThumb2	LeftHandThumb1
LeftHandThumb3	LeftHandThumb2
LeftHandThumb4	LeftHandThumb3
LeftHandIndex1	LeftHand
LeftHandIndex2	LeftHandIndex1
LeftHandIndex3	LeftHandIndex2
LeftHandIndex4	LeftHandIndex3
LeftHandMiddle1	LeftHand
LeftHandMiddle2	LeftHandMiddle1
LeftHandMiddle3	LeftHandMiddle2
LeftHandMiddle4	LeftHandMiddle3
LeftHandRing1	LeftHand
LeftHandRing2	LeftHandRing1
LeftHandRing3	LeftHandRing2
LeftHandRing4	LeftHandRing3
LeftHandPinky1	LeftHand
LeftHandPinky2	LeftHandPinky1
LeftHandPinky3	LeftHandPinky2
LeftHandPinky4	LeftHandPinky3
RightShoulder	Spine2
RightArm	RightShoulder
RightForeArm	RightArm
RightHand	RightForeArm
RightHandPinky1	RightHand
RightHandPinky2	RightHandPinky1
RightHandPinky3	RightHandPinky2
RightHandPinky4	RightHandPinky3
RightHandRing1	RightHand
RightHandRing2	RightHandRing1
RightHandRing3	RightHandRing2
RightHandRing4	RightHandRing3
RightHandMiddle1	RightHand
RightHandMiddle2	RightHandMiddle1
RightHandMiddle3	RightHandMiddle2
RightHandMiddle4	RightHandMiddle3
RightHandIndex1	RightHand
RightHandIndex2	RightHandIndex1
RightHandIndex3	RightHandIndex2
RightHandIndex4	RightHandIndex3
RightHandThumb1	RightHand
RightHandThumb2	RightHandThumb1
RightHandThumb3	RightHandThumb2
RightHandThumb4	RightHandThumb3
LeftUpLeg	Hips
LeftLeg	LeftUpLeg
LeftFoot	LeftLeg
LeftToeBase	LeftFoot
RightUpLeg	Hips
RightLeg	RightUpLeg
RightFoot	RightLeg
RightToeBase	RightFoot
[BasePosition]
Hips	0	0	0	0	0	0	1
Spine	0	0	0	0	0	0	1
Spine1	0	0	0	0	0	0	1
Spine2	0	0	0	0	0	0	1
Neck	0	0	0	0	0	0	1
Head	0	0	0	0	0	0	1
LeftEye	0	0	0	0	0	0	1
RightEye	0	0	0	0	0	0	1
LeftShoulder	0	0	0	0	0	0	1
LeftArm	0	0	0	0	0	0	1
LeftForeArm	0	0	0	0	0	0	1
LeftHand	0	0	0	0	0	0	1
LeftHandThumb1	0	0	0	0	0	0	1
LeftHandThumb2	0	0	0	0	0	0	1
LeftHandThumb3	0	0	0	0	0	0	1
LeftHandThumb4	0	0	0	0	0	0	1
LeftHandIndex1	0	0	0	0	0	0	1
LeftHandIndex2	0	0	0	0	0	0	1
LeftHandIndex3	0	0	0	0	0	0	1
LeftHandIndex4	0	0	0	0	0	0	1
LeftHandMiddle1	0	0	0	0	0	0	1
LeftHandMiddle2	0	0	0	0	0	0	1
LeftHandMiddle3	0	0	0	0	0	0	1
LeftHandMiddle4	0	0	0	0	0	0	1
LeftHandRing1	0	0	0	0	0	0	1
LeftHandRing2	0	0	0	0	0	0	1
LeftHandRing3	0	0	0	0	0	0	1
LeftHandRing4	0	0	0	0	0	0	1
LeftHandPinky1	0	0	0	0	0	0	1
LeftHandPinky2	0	0	0	0	0	0	1
LeftHandPinky3	0	0	0	0	0	0	1
LeftHandPinky4	0	0	0	0	0	0	1
RightShoulder	0	0	0	0	0	0	1
RightArm	0	0	0	0	0	0	1
RightForeArm	0	0	0	0	0	0	1
RightHand	0	0	0	0	0	0	1
RightHandPinky1	0	0	0	0	0	0	1
RightHandPinky2	0	0	0	0	0	0	1
RightHandPinky3	0	0	0	0	0	0	1
RightHandPinky4	0	0	0	0	0	0	1
RightHandRing1	0	0	0	0	0	0	1
RightHandRing2	0	0	0	0	0	0	1
RightHandRing3	0	0	0	0	0	0	1
RightHandRing4	0	0	0	0	0	0	1
RightHandMiddle1	0	0	0	0	0	0	1
RightHandMiddle2	0	0	0	0	0	0	1
RightHandMiddle3	0	0	0	0	0	0	1
RightHandMiddle4	0	0	0	0	0	0	1
RightHandIndex1	0	0	0	0	0	0	1
RightHandIndex2	0	0	0	0	0	0	1
RightHandIndex3	0	0	0	0	0	0	1
RightHandIndex4	0	0	0	0	0	0	1
RightHandThumb1	0	0	0	0	0	0	1
RightHandThumb2	0	0	0	0	0	0	1
RightHandThumb3	0	0	0	0	0	0	1
RightHandThumb4	0	0	0	0	0	0	1
LeftUpLeg	0	0	0	0	0	0	1
LeftLeg	0	0	0	0	0	0	1
LeftFoot	0	0	0	0	0	0	1
LeftToeBase	0	0	0	0	0	0	1
RightUpLeg	0	0	0	0	0	0	1
RightLeg	0	0	0	0	0	0	1
RightFoot	0	0	0	0	0	0	1
RightToeBase	0	0	0	0	0	0	1
[Hips]
18	90.30404663	1241.911743	43.28265381	6.594492912	10.00183487	-1.190842748	1.0
19	95.78063202	1292.870483	22.39315414	7.952523232	8.520466805	-1.684461236	1.0
20	100.9329605	1326.760864	-3.265824318	10.0874424	4.850779533	-1.375879169	1.0
[Spine]
18	0	101.8159943	1.315000057	4.694389343	-0.05627203733	-1.283008814	1.0
19	0	101.8159943	1.315000057	5.869648457	0.6242498755	0.189060688	1.0
20	0	101.8159943	1.315000057	8.251991272	1.659743428	1.070899129	1.0
[Spine1]
18	0	100.8349991	-10.00800037	1.485954404	-0.4368222654	1.184668422	1.0
19	0	100.8349991	-10.00800037	1.771369576	-0.3692348897	-0.06225178391	1.0
20	0	100.8349991	-10.00800037	2.345457315	-0.2248776108	-1.500689864	1.0
[Spine2]
18	0	91	-13.73399925	1.443819404	-0.21239613	1.170539021	1.0
19	0	91	-13.73399925	1.722930312	-0.2788510323	-0.05466149002	1.0
20	0	91	-13.73399925	2.296922922	-0.2768471837	-1.471376419	1.0
[Neck]
18	0	166.7169952	-25.16200066	6.347353458	-1.09204042	-2.140388489	1.0
19	0	166.7169952	-25.16200066	3.356781721	-1.080128193	-1.785222411	1.0
20	0	166.7169952	-25.16200066	-1.411896229	-0.8870112896	-0.8315660954	1.0
[Head]
18	0	96.17900085	16.84999847	-9.18304348	-5.831606388	-2.490943432	1.0
19	0	96.17900085	16.84999847	-13.38838768	-5.491039276	-1.421311259	1.0
20	0	96.17900085	16.84999847	-18.9991703	-3.710879564	-1.034528971	1.0
[LeftEye]
18	30.6760006	64.09500122	92.83599854	0	0	0	1.0
19	30.6760006	64.09500122	92.83599854	0	0	0	1.0
20	30.6760006	64.09500122	92.83599854	0	0	0	1.0
[RightEye]
18	-30.6760006	64.09500122	92.83499908	0	0	0	1.0
19	-30.6760006	64.09500122	92.83499908	0	0	0	1.0
20	-30.6760006	64.09500122	92.83499908	0	0	0	1.0
[LeftShoulder]
18	45.70400238	109.4599991	-26.28000069	1.795314431	-11.76111507	18.50520325	1.0
19	45.70400238	109.4599991	-26.28000069	3.652970791	-11.30063915	15.32866001	1.0
20	45.70400238	109.4599991	-26.28000069	4.641282082	-10.79882336	12.91955566	1.0
[LeftArm]
18	105.923996	-5.24600029	-22.32099915	-28.28578377	-13.9550066	-22.10688782	1.0
19	105.923996	-5.24600029	-22.32099915	-32.99219894	3.242015123	-20.06390381	1.0
20	105.923996	-5.24600029	-22.32099915	-34.44565964	21.40859222	-19.64457512	1.0
[LeftForeArm]
18	278.414978	-0.0009999999311	0	-4.672832347e-06	-71.10476685	-0.0001969560399	1.0
19	278.414978	-0.0009999999311	0	-3.201864047e-06	-82.65421295	-0.0002016384096	1.0
20	278.414978	-0.0009999999311	0	6.893460977e-06	-89.43557739	-0.0001563156839	1.0
[LeftHand]
18	283.2879944	0	0	-20.76845932	-18.42536545	-10.45646	1.0
19	283.2879944	0	0	-11.67839146	-18.37134361	3.553389072	1.0
20	283.2879944	0	0	-3.36344862	-18.67444038	17.83871651	1.0
[LeftHandThumb1]
18	24.6609993	-15.75	26.8239994	18.1439991	-3.792002678	10.2385931	1.0
19	24.6609993	-15.75	26.8239994	18.14661789	-3.827750921	10.25122833	1.0
20	24.6609993	-15.75	26.8239994	17.05635452	-5.409729004	10.03731155	1.0
[LeftHandThumb2]
18	32.29800034	-18.64699936	18.64699936	-0.3841868341	32.9645462	-2.810848713	1.0
19	32.29800034	-18.64699936	18.64699936	-0.40046525	32.92382431	-2.820509672	1.0
20	32.29800034	-18.64699936	18.64699936	-1.756776571	29.38323593	-3.592401028	1.0
[LeftHandThumb3]
18	26.52600098	-15.31499958	15.31499958	2.108404875	9.392408371	-0.0001974692568	1.0
19	26.52600098	-15.31499958	15.31499958	2.103938103	9.376177788	-0.004273165017	1.0
20	26.52600098	-15.31499958	15.31499958	1.72203958	7.966418266	-0.3522563577	1.0
[LeftHandThumb4]
18	19.54599953	-11.28499985	11.28499985	0	0	0	1.0
19	19.54599953	-11.28499985	11.28499985	0	0	0	1.0
20	19.54599953	-11.28499985	11.28499985	0	0	0	1.0
[LeftHandIndex1]
18	91.09299469	-5.170999527	22.60099792	-3.260101557	6.836426735	-36.95588303	1.0
19	91.09299469	-5.170999527	22.60099792	-3.25274539	6.801747799	-36.94752121	1.0
20	91.09299469	-5.170999527	22.60099792	-2.325762033	4.511026382	-29.26448631	1.0
[LeftHandIndex2]
18	36.76399994	0	0	-2.613953114	4.904427528	-49.6038208	1.0
19	36.76399994	0	0	-2.612995625	4.903814793	-49.5926857	1.0
20	36.76399994	0	0	-1.978941917	4.436118603	-41.81672287	1.0
[LeftHandIndex3]
18	28.83100128	0	0	-1.309617281	3.419612885	-39.11617661	1.0
19	28.83100128	0	0	-1.308899283	3.418761492	-39.10508728	1.0
20	28.83100128	0	0	-0.8603510261	2.784521103	-31.35608864	1.0
[LeftHandIndex4]
18	23.92700005	0	0	0	0	0	1.0
19	23.92700005	0	0	0	0	0	1.0
20	23.92700005	0	0	0	0	0	1.0
[LeftHandMiddle1]
18	95.33399963	0	0	-5.444348812	9.756307602	-45.26627731	1.0
19	95.33399963	0	0	-5.442469597	9.762769699	-45.25216293	1.0
20	95.33399963	0	0	-4.328587055	9.009764671	-37.3853302	1.0
[LeftHandMiddle2]
18	36.98199844	0	0	-3.877199411	5.396238327	-62.55390167	1.0
19	36.98199844	0	0	-3.876169682	5.395905495	-62.54288483	1.0
20	36.98199844	0	0	-3.146494865	5.100570202	-54.7413063	1.0
[LeftHandMiddle3]
18	29.50900078	0	0	-1.480586767	4.002568245	-41.23069	1.0
19	29.50900078	0	0	-1.479835629	4.001769543	-41.21958542	1.0
20	29.50900078	0	0	-1.000916839	3.399842501	-33.46349716	1.0
[LeftHandMiddle4]
18	28.3390007	0	0	0	0	0	1.0
19	28.3390007	0	0	0	0	0	1.0
20	28.3390007	0	0	0	0	0	1.0
[LeftHandRing1]
18	91.04499817	-0.4390000105	-18.65100098	-7.110083103	11.63061714	-56.48379517	1.0
19	91.04499817	-0.4390000105	-18.65100098	-7.111814022	11.67196465	-56.48088074	1.0
20	91.04499817	-0.4390000105	-18.65100098	-6.063012123	12.6843853	-48.62991333	1.0
[LeftHandRing2]
18	31.54000092	0	0	-3.469651222	5.78600359	-69.42737579	1.0
19	31.54000092	0	0	-3.468691587	5.785598278	-69.41678619	1.0
20	31.54000092	0	0	-2.777817488	5.43973732	-61.58717346	1.0
[LeftHandRing3]
18	29.37700081	0	0	-1.438492179	4.412775517	-48.30377197	1.0
19	29.37700081	0	0	-1.437744975	4.411957264	-48.29265594	1.0
20	29.37700081	0	0	-0.9551423192	3.812663317	-40.53459549	1.0
[LeftHandRing4]
18	26.47500038	0	0	0	0	0	1.0
19	26.47500038	0	0	0	0	0	1.0
20	26.47500038	0	0	0	0	0	1.0
[LeftHandPinky1]
18	80.77799988	-4.887000084	-38.06099701	-13.25358009	14.1787405	-66.9388504	1.0
19	80.77799988	-4.887000084	-38.06099701	-13.28666592	14.26283741	-66.94915771	1.0
20	80.77799988	-4.887000084	-38.06099701	-11.69866562	16.92189217	-59.28386688	1.0
[LeftHandPinky2]
18	36	0	0	-4.511471748	5.102093697	-74.76849365	1.0
19	36	0	0	-4.510321617	5.101874352	-74.75666046	1.0
20	36	0	0	-3.759051085	4.886627674	-66.90601349	1.0
[LeftHandPinky3]
18	21.14200211	0	0	-2.389036417	5.033432007	-49.55591583	1.0
19	21.14200211	0	0	-2.388120413	5.032771587	-49.54479218	1.0
20	21.14200211	0	0	-1.788003445	4.540709019	-41.76990891	1.0
[LeftHandPinky4]
18	19.75699997	0	0	0	0	0	1.0
19	19.75699997	0	0	0	0	0	1.0
20	19.75699997	0	0	0	0	0	1.0
[RightShoulder]
18	-45.70000076	109.4620056	-26.28000069	4.553617954	2.248200178	-7.697972298	1.0
19	-45.70000076	109.4620056	-26.28000069	5.38391304	-1.29236722	2.513905764	1.0
20	-45.70000076	109.4620056	-26.28000069	5.636518002	-3.087557793	6.669737339	1.0
[RightArm]
18	-105.9280014	-5.248000145	-22.32099915	-40.06874084	9.236773491	30.38664246	1.0
19	-105.9280014	-5.248000145	-22.32099915	-35.23455048	0.327976197	31.95571136	1.0
20	-105.9280014	-5.248000145	-22.32099915	-30.71495819	-4.347198009	38.84440994	1.0
[RightForeArm]
18	-278.414978	0	0	-2.207142188e-06	70.06845856	-2.173824032e-05	1.0
19	-278.414978	0	0	5.230625447e-06	67.70039368	2.584775575e-05	1.0
20	-278.414978	0	0	-8.523411452e-06	62.18972397	-4.625409019e-06	1.0
[RightHand]
18	-283.2879944	0	0.0009999999311	-0.0408612676	31.69505501	-22.17982101	1.0
19	-283.2879944	0	0.0009999999311	-8.099381447	34.27920914	-42.36471176	1.0
20	-283.2879944	0	0.0009999999311	-2.476319313	26.63939285	-34.38070297	1.0
[RightHandPinky1]
18	-80.76699829	-4.885000229	-38.06000137	-2.517155647	-26.02454185	19.1204586	1.0
19	-80.76699829	-4.885000229	-38.06000137	-1.627631664	-26.50907707	15.0779562	1.0
20	-80.76699829	-4.885000229	-38.06000137	-1.636133432	-26.49129486	15.14474297	1.0
[RightHandPinky2]
18	-36	0	0.0009999999311	-0.8385751247	-2.507414103	28.43323898	1.0
19	-36	0	0.0009999999311	-0.6556180716	-2.18684411	24.7382679	1.0
20	-36	0	0.0009999999311	-0.658624351	-2.19248414	24.80231285	1.0
[RightHandPinky3]
18	-21.14200211	0	0	-0.2289415002	1.647099257	5.321284294	1.0
19	-21.14200211	0	0	-0.1753335595	2.010575294	1.660009146	1.0
20	-21.14200211	0	0	-0.1760608405	2.004254341	1.723345637	1.0
[RightHandPinky4]
18	-19.75699997	0	0	0	0	0	1.0
19	-19.75699997	0	0	0	0	0	1.0
20	-19.75699997	0	0	0	0	0	1.0
[RightHandRing1]
18	-91.03599548	-0.4390000105	-18.65100098	-1.064986944	-14.67509747	9.554392815	1.0
19	-91.03599548	-0.4390000105	-18.65100098	-0.6572569013	-14.54232121	5.779723644	1.0
20	-91.03599548	-0.4390000105	-18.65100098	-0.6639444828	-14.54010201	5.845119953	1.0
[RightHandRing2]
18	-31.54000092	0	0	-0.3722687662	-2.600092173	23.24025154	1.0
19	-31.54000092	0	0	-0.2521303296	-2.255223274	19.55393791	1.0
20	-31.54000092	0	0	-0.2540231347	-2.261297464	19.61802292	1.0
[RightHandRing3]
18	-29.37700081	0	0	-0.02866804041	1.754669189	1.004186988	1.0
19	-29.37700081	0	0	-0.06977564842	2.117021322	-2.659440041	1.0
20	-29.37700081	0	0	-0.06887435913	2.11076355	-2.596056223	1.0
[RightHandRing4]
18	-26.47500038	0	0	0	0	0	1.0
19	-26.47500038	0	0	0	0	0	1.0
20	-26.47500038	0	0	0	0	0	1.0
[RightHandMiddle1]
18	-95.32500458	0	0	0.323790729	-2.870899677	-0.6446703672	1.0
19	-95.32500458	0	0	0.6583020091	-2.142934799	-4.257827282	1.0
20	-95.32500458	0	0	0.6526750922	-2.155894279	-4.19516325	1.0
[RightHandMiddle2]
18	-36.98199844	0	0	-0.4684629142	-2.415641785	16.53168488	1.0
19	-36.98199844	0	0	-0.3173870146	-2.075560331	12.85799313	1.0
20	-36.98199844	0	0	-0.3198287189	-2.081525564	12.92151165	1.0
[RightHandMiddle3]
18	-29.50900078	0	0	-0.004069934599	-0.02937109582	-0.9169011712	1.0
19	-29.50900078	0	0	-0.01450509485	0.3350981772	-4.580069065	1.0
20	-29.50900078	0	0	-0.0141187422	0.3287759125	-4.516702175	1.0
[RightHandMiddle4]
18	-28.3390007	0	0.0009999999311	0	0	0	1.0
19	-28.3390007	0	0.0009999999311	0	0	0	1.0
20	-28.3390007	0	0.0009999999311	0	0	0	1.0
[RightHandIndex1]
18	-91.08300018	-5.167999744	22.60099792	1.124082446	8.190574646	-7.650518894	1.0
19	-91.08300018	-5.167999744	22.60099792	1.34485209	9.508450508	-11.16363525	1.0
20	-91.08300018	-5.167999744	22.60099792	1.339748025	9.48150444	-11.10390282	1.0
[RightHandIndex2]
18	-36.76399994	0	0	-0.04579834267	-1.166516662	3.740937471	1.0
19	-36.76399994	0	0	0.01706887595	-0.7988680005	0.07710757852	1.0
20	-36.76399994	0	0	0.01616485417	-0.8052598238	0.1404710859	1.0
[RightHandIndex3]
18	-28.83100128	0	0	-0.07879006118	1.519566894	-2.964323759	1.0
19	-28.83100128	0	0	-0.109600544	1.886624455	-6.628174782	1.0
20	-28.83100128	0	0	-0.1088698804	1.880286217	-6.564789772	1.0
[RightHandIndex4]
18	-23.92700005	0	0	0	0	0	1.0
19	-23.92700005	0	0	0	0	0	1.0
20	-23.92700005	0	0	0	0	0	1.0
[RightHandThumb1]
18	-24.64799881	-15.72700024	26.82600021	11.48132324	13.05310154	-9.346918106	1.0
19	-24.64799881	-15.72700024	26.82600021	10.91092682	13.77145481	-9.306751251	1.0
20	-24.64799881	-15.72700024	26.82600021	10.92145061	13.75533867	-9.30537796	1.0
[RightHandThumb2]
18	-32.29800034	-18.64699936	18.64699936	-7.321742535	-11.83130074	5.922806263	1.0
19	-32.29800034	-18.64699936	18.64699936	-7.799989223	-10.12402248	6.047066689	1.0
20	-32.29800034	-18.64699936	18.64699936	-7.790362358	-10.15859127	6.044699192	1.0
[RightHandThumb3]
18	-26.52600098	-15.31399918	15.31399918	-0.1244317144	-0.1304894239	2.687106133	1.0
19	-26.52600098	-15.31399918	15.31399918	-0.2735203207	0.5468562841	2.824561596	1.0
20	-26.52600098	-15.31399918	15.31399918	-0.2705245316	0.5331229568	2.821790457	1.0
[RightHandThumb4]
18	-19.54599953	-11.28499985	11.28499985	0	0	0	1.0
19	-19.54599953	-11.28499985	11.28499985	0	0	0	1.0
20	-19.54599953	-11.28499985	11.28499985	0	0	0	1.0
[LeftUpLeg]
18	82.07800293	-67.51699829	-15.99599934	-69.77101898	6.338005543	-0.7289659977	1.0
19	82.07800293	-67.51699829	-15.99599934	-64.21625519	4.111860275	-1.462744951	1.0
20	82.07800293	-67.51699829	-15.99599934	-63.62458801	3.264912605	1.49000144	1.0
[LeftLeg]
18	0	-443.7049866	2.845999956	118.5045929	-3.187330246	2.617711306	1.0
19	0	-443.7049866	2.845999956	118.9215088	-4.425256729	2.103910208	1.0
20	0	-443.7049866	2.845999956	112.3015289	-1.412039638	5.978047848	1.0
[LeftFoot]
18	0	-444.2789917	-29.8219986	7.768733025	4.152619839	-14.00764942	1.0
19	0	-444.2789917	-29.8219986	9.538449287	3.087602854	-12.46754837	1.0
20	0	-444.2789917	-29.8219986	16.80882072	2.275900126	-7.401198864	1.0
[LeftToeBase]
18	0	-87.28699493	107.1060028	3.862803698	-3.713522119e-06	2.115684993e-06	1.0
19	0	-87.28699493	107.1060028	4.195215702	-1.445385578e-06	-9.916953786e-06	1.0
20	0	-87.28699493	107.1060028	2.127747059	6.928024959e-06	8.348853953e-06	1.0
[RightUpLeg]
18	-82.07800293	-67.51699829	-15.99599934	-18.6359024	-5.502176285	0.7514838576	1.0
19	-82.07800293	-67.51699829	-15.99599934	-25.55913734	-7.872389793	0.6395709515	1.0
20	-82.07800293	-67.51699829	-15.99599934	-40.31165695	-9.903657913	0.2205385268	1.0
[RightLeg]
18	0	-443.7049866	2.861999989	25.27284813	-6.060940266	-5.840147972	1.0
19	0	-443.7049866	2.861999989	40.63749313	-6.090098381	-4.445532799	1.0
20	0	-443.7049866	2.861999989	70.35228729	-5.416069508	-7.780699253	1.0
[RightFoot]
18	0	-444.2770081	-29.83799934	19.0839119	-21.91968155	18.73494911	1.0
19	0	-444.2770081	-29.83799934	24.31507683	-13.96996403	9.687412262	1.0
20	0	-444.2770081	-29.83799934	24.82030678	-8.763090134	7.17368269	1.0
[RightToeBase]
18	0	-87.28699493	107.1060028	2.040050507	5.796624919e-06	-1.015415091e-05	1.0
19	0	-87.28699493	107.1060028	1.69525826	-3.372229912e-06	1.154734719e-06	1.0
20	0	-87.28699493	107.1060028	1.672954917	-5.977522619e-07	1.315307259e-06	1.0
[EndOfFile]
